<?xml version="1.0" encoding="UTF-8"?>
<svg version="1.1" xmlns="http://www.w3.org/2000/svg" width="833" height="336">
<path d="M0 0 C274.89 0 549.78 0 833 0 C833 110.88 833 221.76 833 336 C558.11 336 283.22 336 0 336 C0 225.12 0 114.24 0 0 Z " fill="#FEFEFE" transform="translate(0,0)"/>
<path d="M0 0 C5.50114403 4.05039985 7.75077493 8.84183644 8.83203125 15.4375 C8.95578125 16.489375 9.07953125 17.54125 9.20703125 18.625 C9.68011719 17.98433594 10.15320313 17.34367187 10.640625 16.68359375 C16.95727808 8.42146078 24.79000507 -0.2764967 35.609375 -1.87890625 C46.33244383 -2.05663667 46.33244383 -2.05663667 50.45703125 1.3125 C54.47189558 5.31701674 55.43373685 9.92776084 55.83203125 15.4375 C55.94417969 16.90123047 55.94417969 16.90123047 56.05859375 18.39453125 C56.10757813 19.13058594 56.1565625 19.86664063 56.20703125 20.625 C56.75230469 19.83996094 57.29757813 19.05492187 57.859375 18.24609375 C63.99541959 9.69758718 70.26562655 2.80063274 80.20703125 -1.375 C83.86328125 -1.80859375 83.86328125 -1.80859375 87.70703125 -1.8125 C88.97546875 -1.83183594 90.24390625 -1.85117188 91.55078125 -1.87109375 C96.37940172 -1.21592837 99.40519632 0.63527319 102.66796875 4.23828125 C107.99052448 14.13277587 105.26650031 26.14551873 103.20703125 36.625 C102.67096702 39.42317755 102.1383276 42.22195376 101.609375 45.02148438 C101.25540388 46.89490931 100.89595286 48.7673065 100.53125 50.63867188 C99.19596838 57.78192657 98.41672612 64.46377949 100.20703125 71.625 C104.0000685 70.62306563 106.92239466 69.81475773 110.20703125 67.625 C110.67079295 73.30608082 109.70728356 77.15986876 106.20703125 81.625 C101.58317591 86.4055962 96.57488223 90.15615764 89.83984375 91.09375 C82.40376821 91.15999566 76.74736197 90.96121327 71.20703125 85.625 C66.22823351 79.04013848 66.73041919 71.56017274 67.20703125 63.625 C68.25073595 56.62138159 69.80913342 49.82514724 71.89453125 43.0625 C73.73124066 36.6869066 73.6893058 30.20990252 73.20703125 23.625 C72.12590009 22.35012277 72.12590009 22.35012277 69.58203125 22.1875 C64.69172992 22.82142795 62.30833915 24.86309961 59.20703125 28.625 C54.36628528 36.66758468 52.06183433 43.25363072 52.08203125 52.625 C52.07945312 53.82125 52.076875 55.0175 52.07421875 56.25 C52.19017179 59.19657137 52.59839273 61.75503531 53.20703125 64.625 C53.7228357 71.26102257 53.8412157 77.82550008 50.20703125 83.625 C46.56171715 87.57193584 43.2226731 90.33621797 37.71875 90.86328125 C31.66046772 91.02248922 27.90746661 90.8668563 23.20703125 86.625 C17.97504548 80.68598912 17.62782729 76.58939399 18.01025391 68.77197266 C18.77343795 60.44512341 20.96019011 52.20135661 22.78173828 44.0546875 C23.88282288 38.91954937 24.43501092 34.25196311 24.33203125 29 C24.31398437 27.79085937 24.2959375 26.58171875 24.27734375 25.3359375 C24.25414062 24.44132812 24.2309375 23.54671875 24.20703125 22.625 C18.464023 22.23704766 18.464023 22.23704766 13.64453125 24.875 C6.41500924 31.74630245 2.66748362 42.29377987 1.95703125 52.0625 C2.15477766 54.88038634 2.52707084 57.1120858 3.20703125 59.8125 C5.00038532 67.49643313 5.63056232 74.80597518 1.70703125 81.875 C0.89873358 83.14133302 0.07436258 84.39834569 -0.79296875 85.625 C-1.45296875 85.625 -2.11296875 85.625 -2.79296875 85.625 C-2.79296875 86.285 -2.79296875 86.945 -2.79296875 87.625 C-8.03797097 90.93763298 -12.75202714 91.51048004 -18.79296875 90.625 C-24.93182971 87.55556952 -28.61877163 83.082412 -30.79296875 76.625 C-32.02179958 65.73137701 -29.13787488 55.84216789 -26.28125 45.44140625 C-24.20831071 37.5134711 -22.75842093 29.8442603 -23.79296875 21.625 C-24.45296875 20.965 -25.11296875 20.305 -25.79296875 19.625 C-29.6020677 19.94917863 -31.57669038 20.48081442 -34.79296875 22.625 C-36.29211188 17.3686294 -34.88589001 14.7163483 -32.37890625 10.0625 C-29.17301192 5.13521413 -24.55905269 1.21515285 -19.015625 -0.90625 C-12.94064857 -2.18744011 -5.64903436 -2.78106307 0 0 Z " fill="#020202" transform="translate(183.79296875,143.375)"/>
<path d="M0 0 C3.44443111 2.6847386 6.15584789 5.98634751 8.82421875 9.421875 C8.98921875 8.349375 9.15421875 7.276875 9.32421875 6.171875 C10.2638739 2.99892987 11.32634078 1.63538579 14.19921875 -0.015625 C20.23708377 -2.55152831 27.07296352 -2.7910703 33.30078125 -0.77734375 C36.92532767 0.92948811 38.55125072 2.01242296 40.82421875 5.421875 C40.53515625 8.51953125 40.53515625 8.51953125 39.82421875 12.421875 C39.6019534 13.89883162 39.38616607 15.37677305 39.17578125 16.85546875 C39.00091187 18.05695557 39.00091187 18.05695557 38.82250977 19.28271484 C37.71224678 26.94636139 36.66397492 34.61024341 35.74658203 42.29956055 C28.36964668 103.74232533 28.36964668 103.74232533 10.82421875 120.421875 C4.93315762 124.87022728 0.28107583 126.71028915 -7.11328125 126.734375 C-8.29792969 126.75113281 -9.48257813 126.76789063 -10.703125 126.78515625 C-17.05584875 126.1205856 -21.07863529 123.18342301 -25.17578125 118.421875 C-28.89125854 113.04083893 -28.91940602 107.7306916 -28.17578125 101.421875 C-26.67295285 95.23417309 -24.58721856 89.30925797 -22.17578125 83.421875 C-22.80484375 83.40769531 -23.43390625 83.39351563 -24.08203125 83.37890625 C-32.49523971 82.91009795 -37.80483747 80.24699548 -43.48828125 74.046875 C-52.35475663 62.96378078 -51.01394258 47.82309129 -50.17578125 34.421875 C-48.09537821 22.03971716 -40.27409968 10.33018125 -30.16796875 2.95703125 C-21.21101363 -2.91777771 -9.82306554 -5.68378635 0 0 Z " fill="#020202" transform="translate(561.17578125,143.578125)"/>
<path d="M0 0 C3.77702297 2.63513231 6.60374735 5.7074947 8.6875 9.875 C9.81415816 24.47327077 7.24871421 37.7700676 3.6875 51.875 C3.48608398 52.68404785 3.28466797 53.4930957 3.07714844 54.32666016 C2.61655251 56.17676107 2.15246769 58.02599296 1.6875 59.875 C2.14898438 59.18535156 2.61046875 58.49570313 3.0859375 57.78515625 C9.76187695 48.16705377 18.0105667 38.26507741 29.6875 34.875 C36.64820152 34.08972918 42.86395256 33.53548486 48.6875 37.875 C54.56599434 45.71299245 54.64871558 53.44414665 53.6875 62.875 C52.59546655 69.54943655 51.24632886 76.17143891 49.82202148 82.78222656 C47.17532957 95.31438317 47.17532957 95.31438317 48.6875 107.875 C52.04183109 106.92566101 55.37996505 105.97751165 58.6875 104.875 C59.24601782 110.4601782 57.73642372 114.30633411 54.6875 118.875 C48.74406161 124.81843839 43.4812867 127.02331685 35.25 127.375 C29.15464824 127.23471572 25.22509191 125.94479893 20.6875 121.875 C15.51500429 116.35767125 15.1613938 110.05243425 15.21875 102.796875 C15.72158415 95.235023 17.73595044 87.84110271 19.55273438 80.50732422 C21.11085906 74.11290635 22.12763133 68.46321592 21.6875 61.875 C20.55442461 60.54728145 20.55442461 60.54728145 17.625 60.375 C11.22429838 61.18778751 7.85276887 65.14403026 3.953125 70.0625 C-1.18574407 77.38920441 -4.02724165 83.86925522 -3.3125 92.875 C-2.9825 93.926875 -2.6525 94.97875 -2.3125 96.0625 C-0.12502029 104.40226638 -0.20595229 113.20944428 -4.3125 120.875 C-7.42469039 124.18637057 -10.5300758 126.72482338 -15.140625 127.11328125 C-24.20549764 127.30989378 -24.20549764 127.30989378 -28.8125 125.5 C-34.99631776 119.00699135 -36.77944661 112.72360023 -36.62841797 103.8996582 C-36.11539863 95.40009916 -34.11641445 87.01482889 -32.4375 78.6875 C-32.06789518 76.8081617 -31.69939842 74.92860512 -31.33203125 73.04882812 C-30.33975987 67.98798837 -29.32901142 62.93101809 -28.3125 57.875 C-27.95149859 56.0778646 -27.59081881 54.28066456 -27.23046875 52.48339844 C-27.06973877 51.68278992 -26.90900879 50.8821814 -26.7434082 50.05731201 C-24.21956306 37.27543053 -22.95926422 24.09715502 -25.25 11.1875 C-25.60126594 8.36293692 -25.65389834 7.35822554 -23.99609375 5.01171875 C-22.19081682 3.37800162 -20.40493837 2.11400077 -18.3125 0.875 C-17.549375 0.42125 -16.78625 -0.0325 -16 -0.5 C-10.53639858 -1.77060498 -5.32302935 -1.80782129 0 0 Z " fill="#020202" transform="translate(647.3125,107.125)"/>
<path d="M0 0 C5.118532 5.60601124 7.90168557 11.21714446 8.1875 18.875 C7.6621291 29.39588911 3.28488319 36.80218815 -4.375 43.875 C-12.74489055 50.52549443 -21.92264394 51.79524685 -32.375 50.875 C-37.01891359 49.80545081 -41.14800417 48.04510947 -45.375 45.875 C-43.27705326 55.77407685 -43.27705326 55.77407685 -36.69140625 63.0546875 C-30.4452298 66.69933774 -24.51058722 66.90168693 -17.57421875 65.1796875 C-11.2644543 63.10261428 -6.41878439 60.14281756 -1.375 55.875 C-0.385 55.09125 0.605 54.3075 1.625 53.5 C2.285 52.96375 2.945 52.4275 3.625 51.875 C4.18545581 60.56206502 2.40643066 67.65193318 -3 74.625 C-10.88067144 83.06289063 -22.06830504 87.29778134 -33.375 87.875 C-34.97214844 87.97167969 -34.97214844 87.97167969 -36.6015625 88.0703125 C-48.03867294 88.4507042 -58.55006824 86.54459749 -67.44140625 78.92578125 C-75.46578356 70.41507804 -78.95671517 60.17476684 -78.875 48.6875 C-78.87000488 47.76348389 -78.86500977 46.83946777 -78.85986328 45.88745117 C-78.65904782 37.96355012 -77.10904196 31.93591445 -73.375 24.875 C-72.9521875 24.01003906 -72.529375 23.14507812 -72.09375 22.25390625 C-65.2756676 9.54928178 -53.85393608 0.40183316 -40.4375 -4.5 C-26.72474605 -8.36229046 -12.15392201 -7.65246942 0 0 Z " fill="#020202" transform="translate(381.375,147.125)"/>
<path d="M0 0 C3.28040962 1.74047934 4.86633727 3.92793427 6.375 7.3125 C5.8984375 9.71484375 5.8984375 9.71484375 4.75 12.25 C2.05830417 18.77424286 0.70689826 25.40075524 -0.625 32.3125 C0.550625 32.291875 1.72625 32.27125 2.9375 32.25 C6.84913467 32.24302739 10.51997944 32.66999657 14.375 33.3125 C14.6146943 38.94531599 13.76029821 43.85788831 12.375 49.3125 C8.29221966 50.39568662 5.19621165 50.14723185 1.0625 49.375 C-0.00613281 49.18035156 -1.07476563 48.98570312 -2.17578125 48.78515625 C-3.38814453 48.55119141 -3.38814453 48.55119141 -4.625 48.3125 C-4.80675781 49.81876953 -4.80675781 49.81876953 -4.9921875 51.35546875 C-5.1611622 52.73701542 -5.33045722 54.11852293 -5.5 55.5 C-5.63317627 56.59550171 -5.63317627 56.59550171 -5.76904297 57.71313477 C-6.31142632 62.08604092 -6.97901045 66.41043026 -7.75 70.75 C-8.56378669 75.9517245 -8.86899165 81.05701123 -8.9375 86.3125 C-8.96384521 87.39035767 -8.96384521 87.39035767 -8.99072266 88.48999023 C-8.98547935 92.94103335 -8.37354344 95.78152449 -5.625 99.3125 C-2.43458826 100.90770587 0.90292375 100.6997204 4.375 100.3125 C7.67601131 98.91325055 7.67601131 98.91325055 10.375 97.3125 C11.035 97.3125 11.695 97.3125 12.375 97.3125 C12.10390669 103.81873933 9.8038547 107.59605733 5.375 112.3125 C-3.02108328 119.85877728 -9.96382977 121.64313764 -21.00390625 121.7109375 C-26.8761263 121.06480326 -30.61710598 118.86551098 -34.375 114.375 C-35.23351562 113.37146484 -35.23351562 113.37146484 -36.109375 112.34765625 C-40.18837153 106.87044699 -40.04654161 102.08905947 -40.0625 95.4375 C-40.06721313 93.81702759 -40.06721313 93.81702759 -40.07202148 92.16381836 C-39.89456557 79.5947674 -39.32680906 60.71611811 -33.625 49.3125 C-38.245 49.6425 -42.865 49.9725 -47.625 50.3125 C-45.60583229 46.27416458 -44.20533211 44.85748074 -40.75 42.125 C-39.88632812 41.43019531 -39.02265625 40.73539063 -38.1328125 40.01953125 C-35.84177807 38.46005766 -34.32705392 37.7335177 -31.625 37.3125 C-31.52703125 36.61769531 -31.4290625 35.92289063 -31.328125 35.20703125 C-30.90405569 32.3226288 -30.45542227 29.44323746 -29.98876953 26.56542969 C-29.72704068 24.94446736 -29.47087221 23.32260365 -29.21826172 21.70019531 C-28.77184744 18.87933166 -28.29479627 16.06493143 -27.8125 13.25 C-27.67166992 12.33387939 -27.53083984 11.41775879 -27.38574219 10.47387695 C-26.63228554 6.23116099 -26.21516784 3.92902302 -23.17578125 0.75390625 C-16.4490124 -3.04728472 -7.0320304 -3.24756711 0 0 Z " fill="#020202" transform="translate(759.625,112.6875)"/>
<path d="M0 0 C5.24733852 2.72589014 8.03516157 6.8164222 9.8671875 12.3125 C9.9901813 14.43485807 10.04274432 16.56161463 10.0546875 18.6875 C10.06886719 19.80898437 10.08304688 20.93046875 10.09765625 22.0859375 C9.73301172 33.44099659 6.82672885 44.68448478 4.4296875 55.75 C4.12660931 57.16203562 3.82387384 58.57414485 3.52148438 59.98632812 C2.4961189 64.76940398 1.46461016 69.55114647 0.4302063 74.33227539 C0.0151715 76.25129214 -0.39868624 78.17056333 -0.8125 80.08984375 C-1.05081543 81.19191162 -1.28913086 82.29397949 -1.53466797 83.42944336 C-3.09095859 90.93076413 -3.82755742 98.65853049 -3.1328125 106.3125 C-2.1428125 107.3025 -2.1428125 107.3025 -1.1328125 108.3125 C2.24710324 107.9567194 4.91007188 106.95534201 7.8671875 105.3125 C8.50745405 110.43463241 7.14732498 113.30676393 4.3515625 117.421875 C-0.12365037 123.12188298 -5.74442898 126.76168221 -12.96484375 127.66796875 C-18.97184181 127.94753973 -23.51887344 127.54386481 -28.4453125 123.94140625 C-33.35107183 119.20598579 -35.91352371 113.91892285 -36.32495117 107.15258789 C-36.41989704 98.03718011 -35.40017953 89.68847728 -33.4453125 80.75 C-33.17565674 79.4602124 -32.90600098 78.1704248 -32.62817383 76.84155273 C-30.76224027 67.94634112 -28.78423891 59.07169823 -26.69458008 50.22631836 C-25.0862647 43.38574304 -24.05123903 37.06662631 -24.28125 30.00390625 C-24.33345703 28.26463867 -24.33345703 28.26463867 -24.38671875 26.49023438 C-24.46734734 24.08308071 -24.57146748 21.67659755 -24.69921875 19.27148438 C-24.83827177 13.30875827 -24.8160047 9.26998956 -20.859375 4.58984375 C-15.06717064 -1.17357851 -7.83611651 -2.52592767 0 0 Z " fill="#030303" transform="translate(73.1328125,106.6875)"/>
<path d="M0 0 C4.99974582 4.38361553 6.33285351 8.5539636 6.8359375 15.0078125 C7.26796371 31.98976588 2.51083092 48.67876851 -1.0625 65.1875 C-1.67450442 68.02429494 -2.28591175 70.86121782 -2.89706421 73.69819641 C-3.27373418 75.44571777 -3.65100011 77.19311082 -4.02896118 78.94035339 C-5.35391468 85.07308811 -6.58874829 90.81720167 -6.625 97.125 C-6.63917969 98.25164062 -6.65335937 99.37828125 -6.66796875 100.5390625 C-6.66543393 103.68726298 -6.66543393 103.68726298 -4.4375 106.5 C-2.1275 106.17 0.1825 105.84 2.5625 105.5 C2.5625 104.84 2.5625 104.18 2.5625 103.5 C3.2225 103.5 3.8825 103.5 4.5625 103.5 C4.04934237 110.94078567 2.27325334 114.90972459 -3.25 120.1875 C-10.43591468 125.40081065 -16.59748149 126.69904506 -25.4375 125.5 C-31.01783813 123.68271883 -33.70819472 120.56655447 -36.375 115.4375 C-41.75312021 103.60563554 -39.23322737 91.6313222 -36.6875 79.3125 C-36.41037223 77.92982346 -36.1339292 76.54700951 -35.8581543 75.1640625 C-33.67338839 64.29388377 -31.14223243 53.52379027 -28.52734375 42.75 C-26.1854296 32.29308102 -25.1331544 21.38204448 -27.14453125 10.76953125 C-27.4375 7.5 -27.4375 7.5 -26.21484375 5.13671875 C-19.22282466 -2.27096177 -9.29668591 -6.30051642 0 0 Z " fill="#020202" transform="translate(437.4375,108.5)"/>
<path d="M0 0 C4.53612985 2.61732168 6.48784388 5.16654546 8.48046875 10.08984375 C11.03082819 25.04868274 5.61338194 38.49614888 0.42016602 52.3293457 C-1.14943797 56.94028679 -1.6405605 61.04441575 -1.58203125 65.90234375 C-1.57300781 66.87816406 -1.56398438 67.85398437 -1.5546875 68.859375 C-1.54308594 69.59542969 -1.53148438 70.33148438 -1.51953125 71.08984375 C1.94988421 70.63161907 5.15441924 70.19852692 8.48046875 69.08984375 C7.94980781 76.78442744 5.82978769 81.14323851 -0.01953125 86.33984375 C-5.87261448 91.28835957 -10.56235358 91.52447307 -18.16015625 91.40625 C-23.68430307 90.88595245 -26.09585604 88.59261202 -29.76953125 84.71484375 C-34.39487117 77.77683387 -34.33512728 70.14593518 -33.51953125 62.08984375 C-32.22665277 57.26024811 -30.42434424 52.70772822 -28.51953125 48.08984375 C-24.768191 38.91426827 -22.40195143 31.10016583 -23.51953125 21.08984375 C-24.5593131 19.84105877 -24.5593131 19.84105877 -26.83203125 19.83984375 C-29.96029963 20.13084546 -31.20630858 21.03364582 -33.51953125 23.08984375 C-34.08466052 17.66460271 -33.22806907 14.58469727 -30.14453125 10.08203125 C-22.47019584 0.6735912 -12.16907555 -4.39596062 0 0 Z " fill="#030303" transform="translate(127.51953125,142.91015625)"/>
<path d="M0 0 C4.37012859 3.53329546 6.68179083 6.53991063 7.46875 12.1875 C7.4855605 13.58327097 7.47395285 14.97960386 7.4375 16.375 C7.42614014 17.12120605 7.41478027 17.86741211 7.40307617 18.63623047 C7.1516061 25.9498833 5.34068488 32.48124851 2.9375 39.375 C2.25960898 41.39621182 1.58806835 43.4194686 0.91674805 45.44287109 C0.28537729 47.33166607 -0.36268564 49.2148574 -1.01171875 51.09765625 C-2.5646282 55.94111732 -3.18626467 60.10253207 -3.125 65.1875 C-3.11597656 66.16332031 -3.10695313 67.13914062 -3.09765625 68.14453125 C-3.08605469 68.88058594 -3.07445312 69.61664063 -3.0625 70.375 C0.88477588 70.55442163 3.5355513 70.46850689 6.9375 68.375 C6.40683906 76.06958369 4.28681894 80.42839476 -1.5625 85.625 C-7.33121845 90.50218923 -12.0633437 90.93735603 -19.5703125 90.8125 C-25.65526857 90.05017888 -28.72480097 87.32050078 -32.4296875 82.65234375 C-36.58485052 75.90378588 -36.01127402 67.69245483 -34.3671875 60.2109375 C-32.31844334 53.27275351 -29.68360014 46.50317402 -27.08154297 39.75463867 C-24.69213221 33.5507321 -23.74727981 28.99462409 -24.0625 22.375 C-24.7225 21.385 -25.3825 20.395 -26.0625 19.375 C-29.66841321 18.90053774 -31.96032379 19.53667336 -35.0625 21.375 C-34.43668768 12.3007213 -30.88324333 7.82511936 -24.16015625 1.890625 C-17.59679989 -2.85161386 -7.27759894 -3.78877168 0 0 Z " fill="#020202" transform="translate(490.0625,143.625)"/>
<path d="M0 0 C3.9542725 3.37628615 7.30264591 6.78812799 8.88671875 11.8125 C9.03127787 15.88009456 7.92633428 19.09770601 6.4375 22.8125 C6.16156006 23.51810059 5.88562012 24.22370117 5.60131836 24.95068359 C2.2654896 33.19593467 -2.12919791 41.29173239 -10 46 C-13.1875 46.625 -13.1875 46.625 -16 46 C-18.92626676 43.72401474 -20.67110949 41.43580667 -22 38 C-23.1576459 25.17166806 -21.94232918 13.87619203 -13.5 3.59765625 C-9.25348967 -0.9253196 -5.97930776 -2.02688399 0 0 Z " fill="#F9F9F9" transform="translate(561,159)"/>
<path d="M0 0 C3.71366317 2.5583013 6.68548092 4.89543281 8.8125 8.9375 C9.71974226 14.01953186 9.31418489 18.43244533 7.6875 23.3125 C4.40206461 27.91210955 0.35181385 31.52046622 -5.1875 32.9375 C-11.6918196 33.75053995 -16.82329561 32.80021151 -22.1875 28.9375 C-25.67769073 25.3600545 -26.48783583 22.42262036 -26.75 17.5625 C-26.52777376 11.93021418 -24.96588565 8.10946749 -21.1875 3.9375 C-14.59264972 -1.20648322 -7.9858368 -2.6619456 0 0 Z " fill="#040404" transform="translate(496.1875,103.0625)"/>
<path d="M0 0 C4.13773864 3.99910307 6.17387503 7.38915968 6.4375 13.125 C6.37541728 18.38823488 5.29375782 21.39647183 1.828125 25.33984375 C-3.3392827 30.03246827 -8.55788462 31.76099206 -15.53515625 31.44921875 C-20.98349809 30.45625629 -24.68936014 27.72021481 -28 23.375 C-29.66706269 17.74866342 -30.49736173 12.04463551 -27.828125 6.6171875 C-24.64050234 2.16437441 -21.31502031 -0.78449255 -16.125 -2.6875 C-9.96762677 -3.59299606 -5.48111206 -3.04506225 0 0 Z " fill="#040404" transform="translate(138,105)"/>
<path d="M0 0 C2.69990662 1.79993774 4.5418865 3.083773 6 6 C7.09119991 13.23309653 5.22084064 19.09493097 1 25 C-2.16528851 28.19336203 -5.06234458 29.89510437 -9.59765625 30.140625 C-13.87863864 29.81277362 -17.22456855 29.08687839 -21 27 C-20.41829963 17.98364434 -18.87176149 10.1469671 -11.875 3.9375 C-7.7846899 0.65753436 -5.36754061 -0.52622947 0 0 Z " fill="#F8F8F8" transform="translate(357,156)"/>
<path d="M0 0 C0.33 0 0.66 0 1 0 C0.65678259 14.44633282 -3.90280815 32.22966202 -14 43 C-17.4352048 45.29013653 -18.985331 45.17842973 -23 45 C-23.37274312 39.41602131 -22.32071463 35.55546215 -19.75 30.6875 C-19.40300049 30.01106445 -19.05600098 29.33462891 -18.69848633 28.63769531 C-13.41589392 18.64440211 -7.0224792 8.86610999 0 0 Z " fill="#F6F6F6" transform="translate(566,204)"/>
</svg>
